:SAMPLES-PER-SECOND 30
:FULLY-SPECIFIED
:DEGREES
447
root  11.1764 37.6105 18.9452 74.3404 85.7591 80.6154
RightUpLeg  7.35528 -8.60363 -10.3004
RightLeg  54.5404 5.43818 7.81684
RightFoot  6.37684 -2.54032 16.3745
RightToes  5.47152e-009 0 -3.6325e-017
Spine  5.72305 2.618 1.26964
Spine1  10.119 5.11409 -11.6023
HEad  1.91624 8.2539 -2.98434
LeftShoulder1  -0.527349 4.85814 -32.7971
LeftArm  -4.43654 14.3915 -36.4273
LeftForeArm  25.8611 -11.0541 -7.04366
LeftHand  -0.016835 4.13557 -0.818078
RightShoulder  -0.59212 -5.20426 28.1091
RightArm  18.4876 -9.16854 50.7015
RightForeArm  18.3429 10.1028 8.10086
RightHand  -0.138257 0.120949 -2.95211
LeftUpLeg  -15.9385 7.01542 -13.4107
LeftLeg  23.8986 8.60209 4.44114
LeftFoot  -2.97932 -0.990981 13.6969
LeftToes  -4.29285e-010 1.49941e-010 2.15559e-012
448
root  12.2609 37.6338 18.9402 78.1587 84.8883 84.7822
RightUpLeg  0.881192 -4.0734 -10.4335
RightLeg  63.2484 5.02039 10.1404
RightFoot  9.49187 -2.42656 13.4385
RightToes  5.47152e-009 0 -3.6325e-017
Spine  6.64816 2.38258 -0.366229
Spine1  10.1857 4.57503 -11.6832
HEad  1.32128 9.72176 -4.15322
LeftShoulder1  -0.436681 4.6336 -32.5046
LeftArm  -2.59164 13.7638 -37.1057
LeftForeArm  24.2339 -12.4632 -7.02858
LeftHand  -0.0112372 3.88853 -0.867876
RightShoulder  -0.600136 -5.2384 27.8554
RightArm  22.5007 -9.34131 49.8085
RightForeArm  15.3467 11.8579 8.22784
RightHand  -0.164409 1.18361 -3.03053
LeftUpLeg  -14.0643 6.52033 -14.1403
LeftLeg  24.8037 9.21482 4.76755
LeftFoot  -5.21354 -0.65704 12.8225
LeftToes  -4.29285e-010 1.49941e-010 2.15559e-012
449
root  13.3804 37.7919 18.892 91.2736 85.1072 98.2927
RightUpLeg  -4.33428 -0.877042 -10.0915
RightLeg  67.794 4.0188 10.0894
RightFoot  5.68641 -1.9455 13.2097
RightToes  5.47152e-009 0 -3.6325e-017
Spine  7.54084 1.6118 -1.05141
Spine1  9.5793 3.39921 -11.1591
HEad  1.37696 9.63645 -4.06863
LeftShoulder1  -0.401162 4.54915 -32.2369
LeftArm  0.745071 13.3574 -37.8062
LeftForeArm  22.9376 -14.8958 -6.61332
LeftHand  -0.00969586 4.00779 -1.31202
RightShoulder  -0.623467 -5.3081 27.8331
RightArm  26.1244 -10.0726 48.4095
RightForeArm  12.8048 14.7214 7.31652
RightHand  -0.134789 -0.140846 -2.9796
LeftUpLeg  -11.4569 5.06828 -13.9145
LeftLeg  24.7086 9.86722 4.89923
LeftFoot  -6.70208 -0.48352 12.9236
LeftToes  -4.29285e-010 1.49941e-010 2.15559e-012
450
root  14.5202 37.9696 18.852 110.075 85.1311 117.635
RightUpLeg  -8.77189 1.70259 -9.72135
RightLeg  68.8779 3.2897 8.69344
RightFoot  5.31074 -1.5751 10.9768
RightToes  5.47152e-009 0 -3.6325e-017
Spine  8.14723 0.948208 -1.83469
Spine1  9.44942 2.24031 -9.9854
HEad  1.86732 9.48812 -4.10796
LeftShoulder1  -0.448783 4.67127 -32.2887
LeftArm  5.0261 12.7839 -38.4219
LeftForeArm  20.5475 -17.9982 -5.61138
LeftHand  -0.0199909 2.60351 0.280063
RightShoulder  -0.63166 -5.35542 27.4007
RightArm  27.733 -11.4338 47.2475
RightForeArm  8.73331 17.91 5.87497
RightHand  -0.160956 0.251698 -3.35615
LeftUpLeg  -8.40533 4.62481 -13.2778
LeftLeg  24.0958 9.32966 4.26397
LeftFoot  -8.00252 -0.347911 13.4263
LeftToes  -4.29285e-010 1.49941e-010 2.15559e-012
451
root  15.6953 38.2243 18.7943 133.254 84.538 141.067
RightUpLeg  -12.4392 3.75116 -9.05789
RightLeg  66.4099 2.63492 6.00338
RightFoot  4.38455 -1.10554 8.19984
RightToes  5.47152e-009 0 -3.6325e-017
Spine  8.24969 0.183812 -1.93368
Spine1  9.33756 1.20178 -8.82172
HEad  2.38065 9.9032 -4.03601
LeftShoulder1  -0.386885 4.52656 -31.6999
LeftArm  7.88303 12.7445 -39.39
LeftForeArm  18.281 -21.8122 -4.35887
LeftHand  -0.0366333 2.12765 0.933709
RightShoulder  -0.652149 -5.42506 27.2463
RightArm  27.7657 -12.6993 45.9643
RightForeArm  5.13425 20.4576 5.01278
RightHand  -0.176936 0.579212 -3.53306
LeftUpLeg  -5.05198 4.26813 -12.162
LeftLeg  22.3407 7.70885 2.99071
LeftFoot  -9.55594 -0.135738 12.434
LeftToes  -4.29285e-010 1.49941e-010 2.15559e-012
452
root  16.859 38.4223 18.6921 151.775 82.7403 159.578
RightUpLeg  -15.2334 4.80375 -8.7797
RightLeg  60.9092 2.34075 4.06295
RightFoot  3.12851 -0.741338 6.01515
RightToes  5.47152e-009 0 -3.6325e-017
Spine  7.99098 -0.650537 -2.18951
Spine1  9.3851 0.00381253 -7.13124
HEad  3.61925 8.23302 -2.99593
LeftShoulder1  -0.398074 4.5585 -31.6025
LeftArm  7.91096 12.3656 -39.6435
LeftForeArm  18.1003 -25.4337 -4.41824
LeftHand  -0.0399116 2.24157 1.04761
RightShoulder  -0.66909 -5.48195 27.1344
RightArm  26.1755 -13.8139 44.514
RightForeArm  4.47829 22.727 4.73061
RightHand  -0.166316 1.29202 -3.0159
LeftUpLeg  -2.01496 3.68563 -11.3231
LeftLeg  20.5654 6.00493 2.15329
LeftFoot  -10.5074 -0.0281393 12.584
LeftToes  -4.29285e-010 1.49941e-010 2.15559e-012
453
root  17.9922 38.5687 18.5589 161.978 80.6547 169.896
RightUpLeg  -16.7163 5.38747 -8.52388
RightLeg  52.4153 2.24719 2.76687
RightFoot  1.79071 -0.637185 5.63526
RightToes  5.47152e-009 0 -3.6325e-017
Spine  8.04553 -1.31667 -2.23087
Spine1  9.29624 -1.01602 -5.32112
HEad  3.63313 7.42932 -2.37098
LeftShoulder1  -0.42471 4.61975 -31.9222
LeftArm  7.14718 11.3433 -39.5919
LeftForeArm  18.7828 -28.136 -5.05735
LeftHand  -0.055684 1.0446 1.35801
RightShoulder  -0.646295 -5.42619 26.9146
RightArm  23.9836 -15.0081 43.4035
RightForeArm  5.09644 24.5664 4.97847
RightHand  -0.204598 1.63861 -3.5286
LeftUpLeg  0.959915 3.73544 -10.3528
LeftLeg  18.9434 3.95597 1.47819
LeftFoot  -11.4705 0.0837917 12.9815
LeftToes  -4.29285e-010 1.49941e-010 2.15559e-012
454
root  19.145 38.6158 18.4124 166.131 78.7906 173.946
RightUpLeg  -17.4193 5.72132 -8.52339
RightLeg  41.794 1.9661 1.62802
RightFoot  0.761422 -0.623991 5.95154
RightToes  5.47152e-009 0 -3.6325e-017
Spine  7.87597 -1.71398 -2.08413
Spine1  9.24163 -1.54869 -4.27871
HEad  2.86263 6.65717 -2.13676
LeftShoulder1  -0.454934 4.69988 -31.899
LeftArm  6.46343 10.3271 -39.8948
LeftForeArm  19.6244 -30.4897 -5.56019
LeftHand  -0.059796 1.34328 1.51582
RightShoulder  -0.693145 -5.55713 27.0833
RightArm  22.8098 -15.6657 42.6968
RightForeArm  5.48908 25.2931 5.13506
RightHand  -0.249159 1.77192 -4.20586
LeftUpLeg  3.26387 4.09253 -9.55463
LeftLeg  18.3343 1.63201 0.84492
LeftFoot  -12.6852 0.230072 13.0356
LeftToes  -4.29285e-010 1.49941e-010 2.15559e-012
455
root  20.3222 38.6029 18.2753 167.827 77.2531 175.444
RightUpLeg  -17.2173 5.53283 -8.57153
RightLeg  29.4134 1.63075 0.830669
RightFoot  -0.193785 -0.730925 7.45028
RightToes  5.47152e-009 0 -3.6325e-017
Spine  7.30015 -1.80379 -2.15232
Spine1  9.69739 -1.7419 -3.08139
HEad  2.46235 5.95024 -2.15735
LeftShoulder1  -0.465719 4.73208 -31.7263
LeftArm  6.05439 8.9898 -40.4026
LeftForeArm  21.1824 -32.035 -5.84806
LeftHand  -0.04208 1.67791 1.0582
RightShoulder  -0.670887 -5.50429 26.837
RightArm  22.1159 -16.0954 42.9949
RightForeArm  4.70857 24.8312 5.07223
RightHand  -0.239233 1.76949 -4.03362
LeftUpLeg  5.54 4.21822 -9.01849
LeftLeg  17.5606 -0.0466285 0.459074
LeftFoot  -14.0398 0.391638 12.9816
LeftToes  -4.29285e-010 1.49941e-010 2.15559e-012
456
root  21.5127 38.5178 18.1032 168.79 75.9598 176.029
RightUpLeg  -16.4776 2.39262 -7.8524
RightLeg  16.1746 3.83101 0.504547
RightFoot  -0.527961 -0.747255 7.83843
RightToes  5.47152e-009 0 -3.6325e-017
Spine  6.91012 -1.84497 -1.66339
Spine1  9.58291 -1.66072 -2.72384
HEad  2.61325 4.4437 -0.78182
LeftShoulder1  -0.332543 4.39931 -31.0305
LeftArm  5.06985 8.53803 -40.9475
LeftForeArm  23.1936 -33.6053 -6.12916
LeftHand  -0.0510447 0.762681 1.19264
RightShoulder  -0.743291 -5.6798 27.5185
RightArm  23.3201 -15.9983 42.7115
RightForeArm  3.12411 23.8139 4.94179
RightHand  -0.280623 2.27168 -4.4352
LeftUpLeg  7.43049 4.0336 -8.74241
LeftLeg  17.1887 -1.0877 0.361849
LeftFoot  -15.4533 0.564506 13.0401
LeftToes  -4.29285e-010 1.49941e-010 2.15559e-012
457
root  22.7371 38.3797 17.8849 168.276 74.9706 175.221
RightUpLeg  -15.3495 -4.85897 -5.82228
RightLeg  3.51204 9.56539 -0.558368
RightFoot  -1.09394 -0.902817 9.99752
RightToes  5.47152e-009 0 -3.6325e-017
Spine  6.22153 -1.87117 -1.6975
Spine1  10.3011 -1.79688 -1.70989
HEad  1.96402 3.33572 -0.758785
LeftShoulder1  -0.353775 4.44021 -31.635
LeftArm  4.89262 8.11812 -40.1493
LeftForeArm  23.8194 -36.0529 -6.73655
LeftHand  -0.0643848 0.343815 1.43999
RightShoulder  -0.712156 -5.59828 27.3407
RightArm  23.1217 -15.9444 43.5298
RightForeArm  2.54481 22.7251 4.79905
RightHand  -0.216544 1.54455 -3.79166
LeftUpLeg  9.67633 4.24952 -8.56845
LeftLeg  16.498 -2.08788 -0.00247108
LeftFoot  -16.8637 0.74701 13.3328
LeftToes  -4.29285e-010 1.49941e-010 2.15559e-012
458
root  23.9802 38.1291 17.6593 166.614 74.3434 173.82
RightUpLeg  -14.8513 -7.20715 -5.2259
RightLeg  -3.90751 9.13803 -0.434318
RightFoot  -2.97732 -0.892396 11.8417
RightToes  5.47152e-009 0 -3.6325e-017
Spine  6.22259 -1.88512 -0.958742
Spine1  11.2656 -1.59198 -2.10149
HEad  0.778242 3.35384 -0.728803
LeftShoulder1  -0.383461 4.50983 -31.9924
LeftArm  5.00129 7.45948 -39.1995
LeftForeArm  23.8289 -38.4636 -7.41067
LeftHand  -0.0908805 -0.0301604 1.97928
RightShoulder  -0.716317 -5.59642 27.5733
RightArm  22.6123 -15.7353 44.261
RightForeArm  0.442946 22.4814 4.89139
RightHand  -0.270234 2.76476 -4.04423
LeftUpLeg  12.4023 4.44125 -8.53846
LeftLeg  16.2414 -2.781 -0.232097
LeftFoot  -18.8434 0.959014 12.8384
LeftToes  -4.29285e-010 1.49941e-010 2.15559e-012
459
root  25.2506 37.789 17.458 165.38 73.7328 172.872
RightUpLeg  -15.8256 -6.53239 -4.84952
RightLeg  -3.32014 5.97848 -0.368396
RightFoot  -4.12341 -0.724497 11.1446
RightToes  5.47152e-009 0 -3.6325e-017
Spine  6.87733 -1.79263 -0.552567
Spine1  11.3783 -1.46775 -2.07416
HEad  -0.259785 2.78049 -0.358692
LeftShoulder1  -0.326067 4.35443 -32.2148
LeftArm  4.55697 7.44271 -39.0691
LeftForeArm  23.6999 -40.4518 -8.01857
LeftHand  -0.0906541 0.644816 2.14377
RightShoulder  -0.709411 -5.56225 27.7903
RightArm  21.4018 -15.9537 44.6771
RightForeArm  -0.645863 23.3372 5.05186
RightHand  -0.337812 3.33087 -4.73422
LeftUpLeg  14.7144 4.20885 -8.58372
LeftLeg  16.9706 -2.94832 -0.231793
LeftFoot  -21.1465 1.18765 12.3082
LeftToes  -4.29285e-010 1.49941e-010 2.15559e-012
460
root  26.5422 37.4576 17.2074 165.852 73.2828 173.261
RightUpLeg  -18.0362 -6.52193 -4.00803
RightLeg  3.15848 2.26439 0.649612
RightFoot  -1.4958 -0.731258 8.23221
RightToes  5.47152e-009 0 -3.6325e-017
Spine  7.49827 -1.94514 0.456594
Spine1  11.3832 -1.66436 -1.89222
HEad  -1.63434 2.35154 -0.107659
LeftShoulder1  -0.411292 4.55596 -32.8558
LeftArm  3.33342 8.17677 -39.0607
LeftForeArm  23.9867 -42.6429 -8.70359
LeftHand  -0.111094 0.301921 2.52613
RightShoulder  -0.741958 -5.64068 28.0341
RightArm  19.6771 -16.048 44.3549
RightForeArm  -0.396516 25.7024 5.53317
RightHand  -0.265656 2.77666 -4.00164
LeftUpLeg  16.3951 2.94277 -8.82523
LeftLeg  18.0833 -1.92751 0.0927366
LeftFoot  -23.0419 1.33925 11.6707
LeftToes  -4.29285e-010 1.49941e-010 2.15559e-012
